<svg viewBox="0 0 16 16" xmlns="http://www.w3.org/2000/svg" xmlns:xlink="http://www.w3.org/1999/xlink" width="16.000000" height="16.000000" fill="none" customFrame="#000000">
	<rect id="bug" width="16.000000" height="16.000000" x="0.000000" y="0.000000" />
	<path id="矢量 133" d="M8 13.3333L8 7.33331" stroke="rgb(156,163,175)" stroke-linecap="round" stroke-linejoin="round" stroke-width="1.333333" />
	<path id="矢量 134" d="M10.6667 5.02395C11.0721 5.258 11.4087 5.59464 11.6427 6.00002C11.8768 6.40541 12 6.86526 12 7.33335L12 9.33335C12 10.1781 11.7326 11.0011 11.2361 11.6845C10.7396 12.3679 10.0394 12.8765 9.23607 13.1376C8.43269 13.3986 7.56731 13.3986 6.76393 13.1376C5.96056 12.8765 5.26044 12.3679 4.76393 11.6845C4.26742 11.0011 4 10.1781 4 9.33335L4 7.33335C4 6.86526 4.12322 6.4054 4.35727 6.00002C4.59131 5.59464 4.92795 5.258 5.33333 5.02395C5.73872 4.7899 6.19857 4.66669 6.66667 4.66669L9.33333 4.66669C9.80143 4.66669 10.2613 4.7899 10.6667 5.02395Z" fill-rule="nonzero" stroke="rgb(156,163,175)" stroke-linecap="round" stroke-linejoin="round" stroke-width="1.333333" />
	<path id="矢量 135" d="M9.41333 2.58665L10.6667 1.33331" stroke="rgb(156,163,175)" stroke-linecap="round" stroke-linejoin="round" stroke-width="1.333333" />
	<path id="矢量 136" d="M14 14C14.0005 13.5459 13.885 13.0991 13.6645 12.7021C13.444 12.3051 13.1258 11.971 12.74 11.7315C12.3542 11.4919 11.9136 11.3549 11.46 11.3333" fill-rule="nonzero" stroke="rgb(156,163,175)" stroke-linecap="round" stroke-linejoin="round" stroke-width="1.333333" />
	<path id="矢量 137" d="M14 3.33331C13.9995 3.76712 13.8931 4.19426 13.6902 4.57768C13.4873 4.9611 13.1939 5.28922 12.8354 5.53358C12.477 5.77795 12.0644 5.93118 11.6333 5.97998" fill-rule="nonzero" stroke="rgb(156,163,175)" stroke-linecap="round" stroke-linejoin="round" stroke-width="1.333333" />
	<path id="矢量 138" d="M14.6667 8.66669L12 8.66669" stroke="rgb(156,163,175)" stroke-linecap="round" stroke-linejoin="round" stroke-width="1.333333" />
	<path id="矢量 139" d="M2 14C1.99949 13.5459 2.11496 13.0991 2.33546 12.7021C2.55597 12.3051 2.8742 11.971 3.26 11.7315C3.64581 11.4919 4.08639 11.3549 4.54 11.3333" fill-rule="nonzero" stroke="rgb(156,163,175)" stroke-linecap="round" stroke-linejoin="round" stroke-width="1.333333" />
	<path id="矢量 140" d="M2 3.33331C2.0005 3.76712 2.10683 4.19426 2.30976 4.57768C2.51269 4.9611 2.8061 5.28922 3.16453 5.53358C3.52297 5.77795 3.93561 5.93118 4.36667 5.97998" fill-rule="nonzero" stroke="rgb(156,163,175)" stroke-linecap="round" stroke-linejoin="round" stroke-width="1.333333" />
	<path id="矢量 141" d="M3.99992 8.66669L1.33325 8.66669" stroke="rgb(156,163,175)" stroke-linecap="round" stroke-linejoin="round" stroke-width="1.333333" />
	<path id="矢量 142" d="M5.33325 1.33331L6.58659 2.58665" stroke="rgb(156,163,175)" stroke-linecap="round" stroke-linejoin="round" stroke-width="1.333333" />
	<path id="矢量 143" d="M6 4.75333L6 4C6 3.57764 6.13371 3.16612 6.38197 2.82443C6.63022 2.48273 6.98028 2.2284 7.38197 2.09789C7.78365 1.96737 8.21635 1.96737 8.61803 2.09789C9.01972 2.2284 9.36978 2.48273 9.61803 2.82443C9.86629 3.16613 10 3.57764 10 4L10 4.75333" fill-rule="nonzero" stroke="rgb(156,163,175)" stroke-linecap="round" stroke-linejoin="round" stroke-width="1.333333" />
</svg>
