<svg viewBox="0 0 16 16" xmlns="http://www.w3.org/2000/svg" xmlns:xlink="http://www.w3.org/1999/xlink" width="16.000000" height="16.000000" fill="none" customFrame="#000000">
	<rect id="bug" width="16.000000" height="16.000000" x="0.000000" y="0.000000" />
	<path id="矢量 133" d="M8 13.3335L8 7.3335" stroke="rgb(156,163,175)" stroke-linecap="round" stroke-linejoin="round" stroke-width="1.333333" />
	<path id="矢量 134" d="M10.6667 5.02401C11.0721 5.25806 11.4087 5.5947 11.6427 6.00008C11.8768 6.40547 12 6.86532 12 7.33342L12 9.33342C12 10.1781 11.7326 11.0012 11.2361 11.6846C10.7396 12.3679 10.0394 12.8766 9.23607 13.1376C8.43269 13.3987 7.56731 13.3987 6.76393 13.1376C5.96056 12.8766 5.26044 12.3679 4.76393 11.6846C4.26742 11.0012 4 10.1781 4 9.33342L4 7.33342C4 6.86532 4.12322 6.40547 4.35727 6.00008C4.59131 5.5947 4.92795 5.25806 5.33333 5.02401C5.73872 4.78996 6.19857 4.66675 6.66667 4.66675L9.33333 4.66675C9.80143 4.66675 10.2613 4.78996 10.6667 5.02401Z" fill-rule="nonzero" stroke="rgb(156,163,175)" stroke-linecap="round" stroke-linejoin="round" stroke-width="1.333333" />
	<path id="矢量 135" d="M9.41333 2.58683L10.6667 1.3335" stroke="rgb(156,163,175)" stroke-linecap="round" stroke-linejoin="round" stroke-width="1.333333" />
	<path id="矢量 136" d="M14 14.0002C14.0005 13.546 13.885 13.0993 13.6645 12.7023C13.444 12.3053 13.1258 11.9712 12.74 11.7317C12.3542 11.4921 11.9136 11.3551 11.46 11.3335" fill-rule="nonzero" stroke="rgb(156,163,175)" stroke-linecap="round" stroke-linejoin="round" stroke-width="1.333333" />
	<path id="矢量 137" d="M14 3.3335C13.9995 3.76731 13.8931 4.19444 13.6902 4.57786C13.4873 4.96128 13.1939 5.2894 12.8354 5.53377C12.477 5.77813 12.0644 5.93136 11.6333 5.98016" fill-rule="nonzero" stroke="rgb(156,163,175)" stroke-linecap="round" stroke-linejoin="round" stroke-width="1.333333" />
	<path id="矢量 138" d="M14.6667 8.66675L12 8.66675" stroke="rgb(156,163,175)" stroke-linecap="round" stroke-linejoin="round" stroke-width="1.333333" />
	<path id="矢量 139" d="M2 14.0002C1.99949 13.546 2.11496 13.0993 2.33546 12.7023C2.55597 12.3053 2.8742 11.9712 3.26 11.7317C3.64581 11.4921 4.08639 11.3551 4.54 11.3335" fill-rule="nonzero" stroke="rgb(156,163,175)" stroke-linecap="round" stroke-linejoin="round" stroke-width="1.333333" />
	<path id="矢量 140" d="M2 3.3335C2.0005 3.76731 2.10683 4.19444 2.30976 4.57786C2.51269 4.96128 2.8061 5.2894 3.16453 5.53377C3.52297 5.77813 3.93561 5.93136 4.36667 5.98016" fill-rule="nonzero" stroke="rgb(156,163,175)" stroke-linecap="round" stroke-linejoin="round" stroke-width="1.333333" />
	<path id="矢量 141" d="M4.00004 8.66675L1.33337 8.66675" stroke="rgb(156,163,175)" stroke-linecap="round" stroke-linejoin="round" stroke-width="1.333333" />
	<path id="矢量 142" d="M5.33337 1.3335L6.58671 2.58683" stroke="rgb(156,163,175)" stroke-linecap="round" stroke-linejoin="round" stroke-width="1.333333" />
	<path id="矢量 143" d="M6 4.75333L6 4C6 3.57764 6.13371 3.16612 6.38197 2.82443C6.63022 2.48273 6.98028 2.2284 7.38197 2.09789C7.78365 1.96737 8.21635 1.96737 8.61803 2.09789C9.01972 2.2284 9.36978 2.48273 9.61803 2.82443C9.86629 3.16613 10 3.57764 10 4L10 4.75333" fill-rule="nonzero" stroke="rgb(156,163,175)" stroke-linecap="round" stroke-linejoin="round" stroke-width="1.333333" />
</svg>
