<svg viewBox="0 0 16 16" xmlns="http://www.w3.org/2000/svg" xmlns:xlink="http://www.w3.org/1999/xlink" width="16.000000" height="16.000000" fill="none" customFrame="#000000">
	<rect id="file-text" width="16.000000" height="16.000000" x="0.000000" y="0.000000" />
	<path id="矢量 122" d="M3.33329 14.4881C3.1306 14.3711 2.96228 14.2027 2.84526 14C2.72823 13.7974 2.66663 13.5674 2.66663 13.3334L2.66663 2.66671C2.66663 2.43266 2.72823 2.20273 2.84526 2.00004C2.96228 1.79735 3.1306 1.62903 3.33329 1.51201C3.53598 1.39498 3.76591 1.33338 3.99996 1.33338L9.33329 1.33338C9.54433 1.33303 9.75335 1.37444 9.94831 1.45522C10.1433 1.536 10.3203 1.65455 10.4693 1.80404L12.8613 4.19604C13.0112 4.34505 13.1301 4.52227 13.2111 4.71748C13.2921 4.91269 13.3336 5.12202 13.3333 5.33338L13.3333 13.3334C13.3333 13.5674 13.2717 13.7974 13.1547 14C13.0376 14.2027 12.8693 14.3711 12.6666 14.4881C12.4639 14.6051 12.234 14.6667 12 14.6667L3.99996 14.6667C3.76591 14.6667 3.53598 14.6051 3.33329 14.4881Z" fill-rule="nonzero" stroke="rgb(156,163,175)" stroke-linecap="round" stroke-linejoin="round" stroke-width="1.333333" />
	<path id="矢量 123" d="M9.33337 1.33337L9.33337 4.66671C9.33337 4.78373 9.36418 4.89869 9.42269 5.00004C9.4812 5.10139 9.56536 5.18554 9.66671 5.24406C9.76805 5.30257 9.88302 5.33337 10 5.33337L13.3334 5.33337" fill-rule="nonzero" stroke="rgb(156,163,175)" stroke-linecap="round" stroke-linejoin="round" stroke-width="1.333333" />
	<path id="矢量 124" d="M6.66671 6L5.33337 6" stroke="rgb(156,163,175)" stroke-linecap="round" stroke-linejoin="round" stroke-width="1.333333" />
	<path id="矢量 125" d="M10.6667 8.66663L5.33337 8.66663" stroke="rgb(156,163,175)" stroke-linecap="round" stroke-linejoin="round" stroke-width="1.333333" />
	<path id="矢量 126" d="M10.6667 11.3334L5.33337 11.3334" stroke="rgb(156,163,175)" stroke-linecap="round" stroke-linejoin="round" stroke-width="1.333333" />
</svg>
