<svg viewBox="0 0 16 16" xmlns="http://www.w3.org/2000/svg" xmlns:xlink="http://www.w3.org/1999/xlink" width="16.000000" height="16.000000" fill="none" customFrame="#000000">
	<rect id="file-text" width="16.000000" height="16.000000" x="0.000000" y="0.000000" />
	<path id="矢量 122" d="M3.33329 14.488C3.1306 14.371 2.96228 14.2027 2.84526 14C2.72823 13.7973 2.66663 13.5674 2.66663 13.3333L2.66663 2.66665C2.66663 2.4326 2.72823 2.20267 2.84526 1.99998C2.96228 1.79729 3.1306 1.62897 3.33329 1.51195C3.53598 1.39492 3.76591 1.33332 3.99996 1.33332L9.33329 1.33332C9.54433 1.33297 9.75335 1.37438 9.94831 1.45516C10.1433 1.53594 10.3203 1.65449 10.4693 1.80398L12.8613 4.19598C13.0112 4.34499 13.1301 4.52221 13.2111 4.71742C13.2921 4.91263 13.3336 5.12196 13.3333 5.33331L13.3333 13.3333C13.3333 13.5674 13.2717 13.7973 13.1547 14C13.0376 14.2027 12.8693 14.371 12.6666 14.488C12.4639 14.605 12.234 14.6666 12 14.6666L3.99996 14.6666C3.76591 14.6666 3.53598 14.605 3.33329 14.488Z" fill-rule="nonzero" stroke="rgb(156,163,175)" stroke-linecap="round" stroke-linejoin="round" stroke-width="1.333333" />
	<path id="矢量 123" d="M9.33337 1.33331L9.33337 4.66665C9.33337 4.78367 9.36418 4.89863 9.42269 4.99998C9.4812 5.10133 9.56536 5.18548 9.66671 5.244C9.76805 5.30251 9.88302 5.33331 10 5.33331L13.3334 5.33331" fill-rule="nonzero" stroke="rgb(156,163,175)" stroke-linecap="round" stroke-linejoin="round" stroke-width="1.333333" />
	<path id="矢量 124" d="M6.66671 6L5.33337 6" stroke="rgb(156,163,175)" stroke-linecap="round" stroke-linejoin="round" stroke-width="1.333333" />
	<path id="矢量 125" d="M10.6667 8.66669L5.33337 8.66669" stroke="rgb(156,163,175)" stroke-linecap="round" stroke-linejoin="round" stroke-width="1.333333" />
	<path id="矢量 126" d="M10.6667 11.3333L5.33337 11.3333" stroke="rgb(156,163,175)" stroke-linecap="round" stroke-linejoin="round" stroke-width="1.333333" />
</svg>
