<svg viewBox="0 0 14 14" xmlns="http://www.w3.org/2000/svg" xmlns:xlink="http://www.w3.org/1999/xlink" width="14.000000" height="14.000000" fill="none" customFrame="#000000">
	<rect id="file" width="14.000000" height="14.000000" x="0.000000" y="0.000000" />
	<path id="矢量 92" d="M2.91671 12.677C2.73935 12.5746 2.59207 12.4273 2.48968 12.25C2.38728 12.0726 2.33337 11.8715 2.33337 11.6667L2.33337 2.33332C2.33337 2.12853 2.38728 1.92735 2.48968 1.74999C2.59207 1.57264 2.73935 1.42536 2.91671 1.32296C3.09406 1.22057 3.29525 1.16666 3.50004 1.16666L8.16671 1.16666C8.35136 1.16636 8.53426 1.20259 8.70485 1.27327C8.87544 1.34395 9.03037 1.44768 9.16071 1.57849L11.2537 3.67149C11.3849 3.80187 11.4889 3.95694 11.5598 4.12775C11.6307 4.29856 11.667 4.48172 11.6667 4.66666L11.6667 11.6667C11.6667 11.8715 11.6128 12.0726 11.5104 12.25C11.408 12.4273 11.2607 12.5746 11.0834 12.677C10.906 12.7794 10.7048 12.8333 10.5 12.8333L3.50004 12.8333C3.29525 12.8333 3.09406 12.7794 2.91671 12.677Z" fill-rule="nonzero" stroke="rgb(139,92,246)" stroke-linecap="round" stroke-linejoin="round" stroke-width="1.166667" />
	<path id="矢量 93" d="M8.16663 1.16666L8.16663 4.08332C8.16663 4.18572 8.19358 4.28631 8.24478 4.37499C8.29598 4.46367 8.36961 4.53731 8.45829 4.5885C8.54697 4.6397 8.64756 4.66666 8.74996 4.66666L11.6666 4.66666" fill-rule="nonzero" stroke="rgb(139,92,246)" stroke-linecap="round" stroke-linejoin="round" stroke-width="1.166667" />
</svg>
