<svg viewBox="0 0 13 13" xmlns="http://www.w3.org/2000/svg" xmlns:xlink="http://www.w3.org/1999/xlink" width="13.000000" height="13.000000" fill="none" customFrame="#000000">
	<rect id="folder-plus" width="13.000000" height="13.000000" x="0.000000" y="0.000000" />
	<path id="矢量 159" d="M6.5 5.41663L6.5 8.66663" stroke="rgb(107,114,128)" stroke-linecap="round" stroke-linejoin="round" stroke-width="1.083333" />
	<path id="矢量 160" d="M4.875 7.04163L8.125 7.04163" stroke="rgb(107,114,128)" stroke-linecap="round" stroke-linejoin="round" stroke-width="1.083333" />
	<path id="矢量 161" d="M11.3749 10.6882C11.5396 10.5931 11.6764 10.4564 11.7714 10.2917C11.8665 10.127 11.9166 9.94017 11.9166 9.75L11.9166 4.33333C11.9166 4.14317 11.8665 3.95635 11.7714 3.79167C11.6764 3.62698 11.5396 3.49022 11.3749 3.39514C11.2102 3.30006 11.0234 3.25 10.8333 3.25L6.55409 3.25C6.37291 3.25178 6.19417 3.20808 6.03425 3.12291C5.87432 3.03775 5.73831 2.91383 5.63867 2.7625L5.19992 2.1125C5.10128 1.96271 4.96699 1.83976 4.80911 1.75467C4.65122 1.66959 4.47469 1.62503 4.29534 1.625L2.16659 1.625C1.97642 1.625 1.78961 1.67506 1.62492 1.77014C1.46023 1.86522 1.32347 2.00198 1.22839 2.16667C1.13331 2.33135 1.08325 2.51817 1.08325 2.70833L1.08325 9.75C1.08325 9.94017 1.13331 10.127 1.22839 10.2917C1.32347 10.4564 1.46023 10.5931 1.62492 10.6882C1.78961 10.7833 1.97642 10.8333 2.16659 10.8333L10.8333 10.8333C11.0234 10.8333 11.2102 10.7833 11.3749 10.6882Z" fill-rule="nonzero" stroke="rgb(107,114,128)" stroke-linecap="round" stroke-linejoin="round" stroke-width="1.083333" />
</svg>
