<svg viewBox="0 0 13 13" xmlns="http://www.w3.org/2000/svg" xmlns:xlink="http://www.w3.org/1999/xlink" width="13.000000" height="13.000000" fill="none" customFrame="#000000">
	<rect id="folder-plus" width="13.000000" height="13.000000" x="0.000000" y="0.000000" />
	<path id="矢量 159" d="M6.5 5.41669L6.5 8.66669" stroke="rgb(107,114,128)" stroke-linecap="round" stroke-linejoin="round" stroke-width="1.083333" />
	<path id="矢量 160" d="M4.875 7.04169L8.125 7.04169" stroke="rgb(107,114,128)" stroke-linecap="round" stroke-linejoin="round" stroke-width="1.083333" />
	<path id="矢量 161" d="M11.3747 10.6882C11.5394 10.5931 11.6761 10.4564 11.7712 10.2917C11.8663 10.127 11.9163 9.94017 11.9163 9.75L11.9163 4.33333C11.9163 4.14317 11.8663 3.95635 11.7712 3.79167C11.6761 3.62698 11.5394 3.49022 11.3747 3.39514C11.21 3.30006 11.0232 3.25 10.833 3.25L6.55384 3.25C6.37266 3.25178 6.19393 3.20808 6.034 3.12291C5.87408 3.03775 5.73807 2.91383 5.63842 2.7625L5.19967 2.1125C5.10103 1.96271 4.96674 1.83976 4.80886 1.75467C4.65098 1.66959 4.47444 1.62503 4.29509 1.625L2.16634 1.625C1.97618 1.625 1.78936 1.67506 1.62467 1.77014C1.45999 1.86522 1.32323 2.00198 1.22815 2.16667C1.13306 2.33135 1.08301 2.51817 1.08301 2.70833L1.08301 9.75C1.08301 9.94017 1.13306 10.127 1.22815 10.2917C1.32323 10.4564 1.45999 10.5931 1.62467 10.6882C1.78936 10.7833 1.97618 10.8333 2.16634 10.8333L10.833 10.8333C11.0232 10.8333 11.21 10.7833 11.3747 10.6882Z" fill-rule="nonzero" stroke="rgb(107,114,128)" stroke-linecap="round" stroke-linejoin="round" stroke-width="1.083333" />
</svg>
