<svg viewBox="0 0 14 14" xmlns="http://www.w3.org/2000/svg" xmlns:xlink="http://www.w3.org/1999/xlink" width="14.000000" height="14.000000" fill="none" customFrame="#000000">
	<rect id="gem" width="14.000000" height="14.000000" x="0.000000" y="0.000000" />
	<path id="矢量 114" d="M6.12484 1.75L4.6665 5.25L6.99984 12.8333L9.33317 5.25L7.87484 1.75" fill-rule="nonzero" stroke="rgb(245,158,11)" stroke-linecap="round" stroke-linejoin="round" stroke-width="1.166667" />
	<path id="矢量 115" d="M10.4384 1.87317C10.6004 1.95417 10.7414 2.07177 10.85 2.21667L12.6 4.55C12.6996 4.68282 12.7697 4.83536 12.8056 4.99744C12.8415 5.15951 12.8425 5.32739 12.8083 5.48984C12.7742 5.6523 12.7057 5.8056 12.6076 5.9395L7.94678 12.348C7.83872 12.4982 7.69649 12.6205 7.53182 12.7049C7.36715 12.7893 7.18477 12.8333 6.99974 12.8333C6.81471 12.8333 6.63233 12.7893 6.46766 12.7049C6.30299 12.6205 6.16076 12.4982 6.0527 12.348L1.39186 5.9395C1.29379 5.80556 1.22543 5.65223 1.19135 5.48976C1.15727 5.32729 1.15826 5.15941 1.19425 4.99735C1.23023 4.83529 1.30039 4.68278 1.40003 4.55L3.14886 2.21842C3.25747 2.07304 3.39849 1.955 3.56072 1.87369C3.72294 1.79237 3.9019 1.75002 4.08336 1.75L9.9167 1.75C10.0978 1.75 10.2764 1.79217 10.4384 1.87317Z" fill-rule="nonzero" stroke="rgb(245,158,11)" stroke-linecap="round" stroke-linejoin="round" stroke-width="1.166667" />
	<path id="矢量 116" d="M1.1665 5.25L12.8332 5.25" stroke="rgb(245,158,11)" stroke-linecap="round" stroke-linejoin="round" stroke-width="1.166667" />
</svg>
