<svg viewBox="0 0 14 14" xmlns="http://www.w3.org/2000/svg" xmlns:xlink="http://www.w3.org/1999/xlink" width="14.000000" height="14.000000" fill="none" customFrame="#000000">
	<rect id="leaf" width="14.000000" height="14.000000" x="0.000000" y="0.000000" />
	<path id="矢量 100" d="M4.12536 10.9717C3.44825 10.5163 2.9231 9.86848 2.61766 9.1118C2.31221 8.35512 2.24049 7.52428 2.41173 6.72644C2.58297 5.92861 2.98932 5.20038 3.57837 4.63569C4.16742 4.07099 4.91215 3.69574 5.71651 3.55832C9.0415 2.91666 9.91651 2.61332 11.0832 1.16666C11.6665 2.33332 12.2498 3.60499 12.2498 5.83332C12.2498 9.04166 9.4615 11.6667 6.41651 11.6667C5.60051 11.6691 4.80248 11.4271 4.12536 10.9717Z" fill-rule="nonzero" stroke="rgb(34,197,94)" stroke-linecap="round" stroke-linejoin="round" stroke-width="1.166667" />
	<path id="矢量 101" d="M1.1665 12.25C1.1665 10.5 2.24567 9.12333 4.12984 8.75C5.5415 8.47 6.99984 7.58333 7.58317 7" fill-rule="nonzero" stroke="rgb(34,197,94)" stroke-linecap="round" stroke-linejoin="round" stroke-width="1.166667" />
</svg>
