<svg viewBox="0 0 13 13" xmlns="http://www.w3.org/2000/svg" xmlns:xlink="http://www.w3.org/1999/xlink" width="13.000000" height="13.000000" fill="none" customFrame="#000000">
	<rect id="list-ordered" width="13.000000" height="13.000000" x="0.000000" y="0.000000" />
	<path id="矢量 153" d="M5.9585 2.70837L11.3752 2.70837" stroke="rgb(107,114,128)" stroke-linecap="round" stroke-linejoin="round" stroke-width="1.083333" />
	<path id="矢量 154" d="M5.9585 6.5L11.3752 6.5" stroke="rgb(107,114,128)" stroke-linecap="round" stroke-linejoin="round" stroke-width="1.083333" />
	<path id="矢量 155" d="M5.9585 10.2916L11.3752 10.2916" stroke="rgb(107,114,128)" stroke-linecap="round" stroke-linejoin="round" stroke-width="1.083333" />
	<path id="矢量 156" d="M2.1665 2.16663L2.70817 2.16663L2.70817 4.87496" fill-rule="nonzero" stroke="rgb(107,114,128)" stroke-linecap="round" stroke-linejoin="round" stroke-width="1.083333" />
	<path id="矢量 157" d="M2.1665 4.875L3.24984 4.875" stroke="rgb(107,114,128)" stroke-linecap="round" stroke-linejoin="round" stroke-width="1.083333" />
	<path id="矢量 158" d="M3.52096 10.8333L1.8418 10.8333C1.8418 10.2917 3.25013 9.79061 3.25013 8.93748C3.25015 8.77416 3.20095 8.61462 3.10895 8.47968C3.01694 8.34473 2.8864 8.24065 2.73436 8.181C2.58232 8.12135 2.41583 8.10891 2.25661 8.1453C2.09739 8.18169 1.95284 8.26521 1.8418 8.38498" fill-rule="nonzero" stroke="rgb(107,114,128)" stroke-linecap="round" stroke-linejoin="round" stroke-width="1.083333" />
</svg>
