<svg viewBox="0 0 16 16" xmlns="http://www.w3.org/2000/svg" xmlns:xlink="http://www.w3.org/1999/xlink" width="16.000000" height="16.000000" fill="none" customFrame="#000000">
	<rect id="map-pin" width="16.000000" height="16.000000" x="0.000000" y="0.000000" />
	<path id="矢量 73" d="M8.40063 14.5327C8.32399 14.5903 8.23582 14.6307 8.14214 14.6512C8.04846 14.6716 7.95146 14.6716 7.85778 14.6512C7.7641 14.6307 7.67593 14.5903 7.59929 14.5327C6.35929 13.462 2.66663 9.99533 2.66663 6.66666C2.66663 5.54037 3.02319 4.44299 3.6852 3.53181C4.34722 2.62062 5.2807 1.9424 6.35187 1.59436C7.42303 1.24632 8.57689 1.24632 9.64805 1.59436C10.7192 1.9424 11.6527 2.62062 12.3147 3.53181C12.9767 4.443 13.3333 5.54038 13.3333 6.66666C13.3333 9.99533 9.64063 13.462 8.40063 14.5327Z" fill-rule="nonzero" stroke="rgb(156,163,175)" stroke-linecap="round" stroke-linejoin="round" stroke-width="1.333333" />
	<circle id="椭圆 14" cx="8" cy="6.66667175" r="2" stroke="rgb(156,163,175)" stroke-linecap="round" stroke-linejoin="round" stroke-width="1.333333" />
</svg>
