<svg viewBox="0 0 16 16" xmlns="http://www.w3.org/2000/svg" xmlns:xlink="http://www.w3.org/1999/xlink" width="16.000000" height="16.000000" fill="none" customFrame="#000000">
	<rect id="map-pin" width="16.000000" height="16.000000" x="0.000000" y="0.000000" />
	<path id="矢量 132" d="M8.40063 14.5327C8.32399 14.5903 8.23582 14.6308 8.14214 14.6512C8.04846 14.6717 7.95146 14.6717 7.85778 14.6512C7.7641 14.6308 7.67593 14.5903 7.59929 14.5327C6.35929 13.462 2.66663 9.99537 2.66663 6.66671C2.66663 5.54042 3.02319 4.44304 3.6852 3.53185C4.34722 2.62067 5.2807 1.94245 6.35187 1.59441C7.42303 1.24636 8.57689 1.24636 9.64805 1.59441C10.7192 1.94245 11.6527 2.62067 12.3147 3.53185C12.9767 4.44304 13.3333 5.54042 13.3333 6.66671C13.3333 9.99537 9.64063 13.462 8.40063 14.5327Z" fill-rule="nonzero" stroke="rgb(139,92,246)" stroke-linecap="round" stroke-linejoin="round" stroke-width="1.333333" />
	<circle id="椭圆 19" cx="8" cy="6.66662598" r="2" stroke="rgb(139,92,246)" stroke-linecap="round" stroke-linejoin="round" stroke-width="1.333333" />
</svg>
