<svg viewBox="0 0 16 16" xmlns="http://www.w3.org/2000/svg" xmlns:xlink="http://www.w3.org/1999/xlink" width="16.000000" height="16.000000" fill="none" customFrame="#000000">
	<rect id="map-pin" width="16.000000" height="16.000000" x="0.000000" y="0.000000" />
	<path id="矢量 132" d="M8.40075 14.5327C8.32411 14.5903 8.23594 14.6307 8.14226 14.6512C8.04858 14.6716 7.95159 14.6716 7.8579 14.6512C7.76422 14.6307 7.67605 14.5903 7.59941 14.5327C6.35941 13.462 2.66675 9.99533 2.66675 6.66666C2.66675 5.54037 3.02331 4.44299 3.68532 3.53181C4.34734 2.62062 5.28083 1.9424 6.35199 1.59436C7.42316 1.24632 8.57701 1.24632 9.64817 1.59436C10.7193 1.9424 11.6528 2.62062 12.3148 3.53181C12.9769 4.443 13.3334 5.54038 13.3334 6.66666C13.3334 9.99533 9.64075 13.462 8.40075 14.5327Z" fill-rule="nonzero" stroke="rgb(156,163,175)" stroke-linecap="round" stroke-linejoin="round" stroke-width="1.333333" />
	<circle id="椭圆 19" cx="8" cy="6.66667175" r="2" stroke="rgb(156,163,175)" stroke-linecap="round" stroke-linejoin="round" stroke-width="1.333333" />
</svg>
