<svg viewBox="0 0 12 12" xmlns="http://www.w3.org/2000/svg" xmlns:xlink="http://www.w3.org/1999/xlink" width="12.000000" height="12.000000" fill="none" customFrame="#000000">
	<rect id="pencil" width="12.000000" height="12.000000" x="0.000000" y="0.000000" />
	<path id="矢量 149" d="M10.9824 2.62996C11.0289 2.33601 10.9813 2.03487 10.8462 1.76968C10.7111 1.5045 10.4955 1.28888 10.2304 1.15372C9.96522 1.01857 9.66409 0.970814 9.37013 1.0173C9.07617 1.06379 8.80447 1.20214 8.59397 1.41252L1.92097 8.08702C1.80488 8.20277 1.71902 8.34529 1.67097 8.50202L1.01047 10.678C0.997545 10.7213 0.996569 10.7672 1.00764 10.8109C1.01872 10.8547 1.04143 10.8946 1.07337 10.9265C1.1053 10.9584 1.14528 10.9811 1.18905 10.9921C1.23282 11.0031 1.27875 11.002 1.32197 10.989L3.49847 10.329C3.65505 10.2814 3.79755 10.1961 3.91347 10.0805L10.587 3.40602C10.7974 3.19557 10.9358 2.9239 10.9824 2.62996Z" fill-rule="nonzero" stroke="rgb(156,163,175)" stroke-linecap="round" stroke-linejoin="round" stroke-width="1.000000" />
	<path id="矢量 150" d="M7.5 2.5L9.5 4.5" stroke="rgb(156,163,175)" stroke-linecap="round" stroke-linejoin="round" stroke-width="1.000000" />
</svg>
