<svg viewBox="0 0 14 14" xmlns="http://www.w3.org/2000/svg" xmlns:xlink="http://www.w3.org/1999/xlink" width="14.000000" height="14.000000" fill="none" customFrame="#000000">
	<rect id="users" width="14.000000" height="14.000000" x="0.000000" y="0.000000" />
	<path id="矢量 109" d="M9.33341 12.25L9.33341 11.0833C9.33341 10.6737 9.2256 10.2714 9.02081 9.91667C8.81601 9.56196 8.52146 9.2674 8.16675 9.06261C7.81204 8.85781 7.40967 8.75 7.00008 8.75L3.50008 8.75C3.0905 8.75 2.68813 8.85781 2.33341 9.06261C1.9787 9.2674 1.68415 9.56195 1.47936 9.91667C1.27456 10.2714 1.16675 10.6737 1.16675 11.0833L1.16675 12.25" fill-rule="nonzero" stroke="rgb(0,0,0)" stroke-linecap="round" stroke-linejoin="round" stroke-width="1.166667" />
	<path id="矢量 110" d="M9.33325 1.82468C9.73222 1.92811 10.0967 2.13538 10.3895 2.42539C10.6824 2.71541 10.8932 3.07782 11.0005 3.47576C11.1079 3.87371 11.1079 4.29298 11.0005 4.69092C10.8932 5.08886 10.6824 5.45128 10.3895 5.74129C10.0967 6.03131 9.73222 6.23858 9.33325 6.34201" fill-rule="nonzero" stroke="rgb(0,0,0)" stroke-linecap="round" stroke-linejoin="round" stroke-width="1.166667" />
	<path id="矢量 111" d="M12.8333 12.25L12.8333 11.0833C12.833 10.7404 12.7572 10.4018 12.6111 10.0915C12.4651 9.78122 12.2525 9.50694 11.9884 9.28819C11.7243 9.06943 11.4153 8.91157 11.0833 8.82584" fill-rule="nonzero" stroke="rgb(0,0,0)" stroke-linecap="round" stroke-linejoin="round" stroke-width="1.166667" />
	<circle id="椭圆 17" cx="5.25008106" cy="4.08333302" r="2.33333325" stroke="rgb(0,0,0)" stroke-linecap="round" stroke-linejoin="round" stroke-width="1.166667" />
</svg>
